<svg xmlns="http://www.w3.org/2000/svg" viewBox="0 0 100 100" width="100" height="100">
  <circle cx="50" cy="50" r="46" fill="#ffd83d" stroke="#f0b400" stroke-width="3"/>
  <path d="M38 38 a6 6 0 0 0-12 0 c0 6 12 12 12 12 s12-6 12-12 a6 6 0 0 0-12 0" fill="#ff3b6b" transform="translate(-4,4)"/>
  <path d="M70 38 a6 6 0 0 0-12 0 c0 6 12 12 12 12 s12-6 12-12 a6 6 0 0 0-12 0" fill="#ff3b6b" transform="translate(-4,4)"/>
  <path d="M32 62 Q50 80 68 62" fill="none" stroke="#3a2c00" stroke-width="6" stroke-linecap="round"/>
</svg>
